# xmcd
#
# Track frame offsets:
#	150
#	21919
#	46826
#	75003
#	109102
#	139602
#	157626
#	174407
#	196817
#	225022
#	248403
#	280915
#	309580
#	328946
#
# Disc length: 4727 seconds
#
# Revision: 0
# Processed by: cddbd v1.5.1PL2 Copyright (c) Steve Scherf et al.
# Submitted via: dBpowerAMP V4.0
#
DISCID=9912750e
DTITLE=Robben Ford - Collection
DYEAR=1900
DGENRE=
TTITLE0=You cut me to the bone
TTITLE1=I'm a real man
TTITLE2=Tell me I'm your man
TTITLE3=Lifesong
TTITLE4=The way you treated me 
TTITLE5=Sometime Love
TTITLE6=Good to love
TTITLE7=Don't deny your love
TTITLE8=It don't make sense
TTITLE9=Don't let me be misunderstood
TTITLE10=Good Thing
TTITLE11=Revelation
TTITLE12=Getaway
TTITLE13=Help the poor
EXTD=selection
EXTT0=
EXTT1=
EXTT2=
EXTT3=
EXTT4=
EXTT5=
EXTT6=
EXTT7=
EXTT8=
EXTT9=
EXTT10=
EXTT11=
EXTT12=
EXTT13=
PLAYORDER=
